<?xml version="1.0" encoding="utf-8"?>
<!-- Generator: Adobe Illustrator 24.0.1, SVG Export Plug-In . SVG Version: 6.00 Build 0)  -->
<svg version="1.1" id="Layer_1" xmlns="http://www.w3.org/2000/svg" xmlns:xlink="http://www.w3.org/1999/xlink" x="0px" y="0px"
	 viewBox="0 0 1725.9 720" style="enable-background:new 0 0 1725.9 720;" xml:space="preserve">
<style type="text/css">
	.st0{fill-rule:evenodd;clip-rule:evenodd;fill:#FFFFFF;}
	.st1{fill-rule:evenodd;clip-rule:evenodd;fill:#FFE800;}
	.st2{fill:#DBD8C8;}
</style>
<polyline class="st0" points="132.3,500.3 587.7,290.3 333.5,587.4 180.9,587.4 526.7,333.7 132.3,583.9 "/>
<path class="st1" d="M587,317.6v269.7H356.2l58-67.7h105.1V396.8 M587,149.8v32.7v89.2l-67.7,31.2v-76.1v-26.4H200v249.8l-67.7,31.2
	V132.6H587V149.8z"/>
<g>
	<g>
		<path class="st2" d="M667.8,211.9h18v128.3h-18V211.9z M679,211.9h71.2v17.1H679V211.9z M740.7,211.9h18v128.3h-18V211.9z"/>
		<path class="st2" d="M790.5,211.9h18v128.3h-18V211.9z M799.8,273.4h41c3.9,0,7.3-0.9,10.2-2.7c2.9-1.8,5.2-4.4,6.8-7.8
			c1.6-3.4,2.4-7.2,2.4-11.6c0-4.4-0.8-8.3-2.4-11.7c-1.6-3.4-3.9-6-6.8-7.8s-6.4-2.8-10.2-2.8h-41v-17.1h40.4
			c7.6,0,14.4,1.6,20.2,4.9s10.3,7.9,13.5,13.8c3.2,5.9,4.8,12.8,4.8,20.7c0,7.8-1.6,14.7-4.8,20.6s-7.7,10.5-13.5,13.7
			c-5.8,3.2-12.6,4.9-20.2,4.9h-40.4V273.4z"/>
		<path class="st2" d="M921.8,335.7c-6.8-3.9-12.1-9.4-15.8-16.6c-3.7-7.1-5.6-15.4-5.6-24.8v-36.4c0-9.4,1.9-17.7,5.6-24.8
			c3.7-7.1,9-12.7,15.8-16.6c6.8-3.9,14.7-5.9,23.7-5.9c8.9,0,16.8,2,23.7,5.9c6.8,3.9,12.1,9.4,15.8,16.6
			c3.7,7.1,5.6,15.4,5.6,24.8v36.4c0,9.4-1.9,17.7-5.6,24.8c-3.7,7.1-9,12.7-15.8,16.6c-6.8,3.9-14.7,5.9-23.7,5.9
			C936.5,341.6,928.7,339.6,921.8,335.7z M959.5,320.3c4-2.4,7.1-5.8,9.4-10.2c2.2-4.4,3.3-9.5,3.3-15.2v-37.6
			c0-5.8-1.1-10.8-3.3-15.2c-2.2-4.4-5.3-7.8-9.4-10.1c-4-2.4-8.7-3.6-14-3.6s-10,1.2-14,3.6c-4,2.4-7.1,5.8-9.4,10.1
			c-2.2,4.4-3.3,9.5-3.3,15.2v37.6c0,5.8,1.1,10.8,3.3,15.2c2.2,4.4,5.3,7.8,9.4,10.2c4,2.4,8.7,3.6,14,3.6S955.5,322.7,959.5,320.3
			z"/>
		<path class="st2" d="M1019.7,211.9h18v128.3h-18V211.9z M1030.9,211.9h71.2v17.1h-71.2V211.9z M1092.6,211.9h18v128.3h-18V211.9z"
			/>
		<path class="st2" d="M1131.8,211.9h20.5l37.7,91.9l-11.7,14.4L1131.8,211.9z M1196.7,313.7c-2.3,6.2-4.9,11.4-7.8,15.5
			c-2.9,4.1-6.4,7.2-10.3,9.3c-4,2.1-8.6,3.1-14,3.1h-14.9v-17.7h14.9c2.7,0,5.1-0.6,7.2-1.9c2.1-1.3,3.9-3.2,5.6-5.7
			c1.6-2.5,3.1-5.7,4.5-9.5l32.8-94.8h19.6L1196.7,313.7z"/>
		<path class="st2" d="M1271.3,335.7c-6.7-3.9-12-9.5-15.7-16.8c-3.7-7.2-5.6-15.6-5.6-25.2v-35.2c0-9.5,1.9-17.9,5.6-25.2
			c3.7-7.2,8.9-12.8,15.7-16.8c6.7-4,14.5-6,23.4-6c7.4,0,14.1,1.6,20.3,4.7c6.2,3.1,11.3,7.6,15.5,13.4c4.1,5.8,7,12.4,8.4,20
			h-18.4c-1.1-4-3-7.6-5.6-10.7c-2.6-3.1-5.7-5.6-9.2-7.3c-3.5-1.7-7.2-2.6-10.9-2.6c-5.2,0-9.8,1.3-13.8,3.8
			c-3.9,2.5-7,6.1-9.2,10.6c-2.2,4.6-3.3,9.9-3.3,15.9v35.2c0,6,1.1,11.3,3.3,15.9c2.2,4.6,5.2,8.1,9.2,10.6
			c3.9,2.5,8.5,3.8,13.8,3.8c3.8,0,7.5-0.8,11-2.4c3.5-1.6,6.6-3.9,9.2-7.1c2.6-3.1,4.5-6.8,5.6-11.1h18.4c-1.5,7.6-4.3,14.3-8.5,20
			c-4.2,5.8-9.4,10.2-15.5,13.4c-6.2,3.1-12.9,4.7-20.2,4.7C1285.9,341.6,1278.1,339.6,1271.3,335.7z"/>
		<path class="st2" d="M1364.6,211.9h18v128.3h-18V211.9z M1373.3,268h40.2v17.1h-40.2V268z M1397.6,283.8l15.8-9.3l49.5,65.8h-25
			L1397.6,283.8z M1397.7,269.8l37.2-57.9h22.6l-50.8,73.7L1397.7,269.8z"/>
	</g>
</g>
<g>
	<g>
		<path class="st2" d="M666.7,384.1h16.6v119.2h-16.6V384.1z M676.5,487.8h32.3c8.5,0,14.6-1.6,18.5-4.8c3.9-3.2,5.8-7.8,5.8-13.6
			v-0.2c0-4-0.7-7.5-2.1-10.4c-1.4-2.9-3.6-5.1-6.6-6.7c-3-1.6-6.9-2.3-11.6-2.3h-36.4v-15.1h36.4c6.2,0,10.8-1.4,14-4.3
			c3.1-2.9,4.7-7.2,4.7-12.9c0-6-1.8-10.4-5.2-13.4c-3.5-3-8.7-4.4-15.7-4.4h-34.1v-15.5h37.1c7.7,0,14.2,1.3,19.4,3.9
			c5.2,2.6,9.1,6.3,11.6,11.2c2.6,4.8,3.9,10.5,3.9,17.2c0,4.1-0.8,7.9-2.4,11.5c-1.6,3.6-4,6.6-7.3,9.2c-3.3,2.5-7.3,4.3-12.1,5.1
			c4.8,0.7,9,2.4,12.5,5.1c3.5,2.7,6.2,6.1,8,10.1c1.9,4,2.8,8.4,2.8,13.1v0.2c0,6.5-1.4,12.1-4.3,17.1c-2.8,4.9-6.9,8.7-12.2,11.4
			c-5.3,2.7-11.5,4-18.5,4h-38.5V487.8z"/>
		<path class="st2" d="M905.9,384.1h15.7v119.2h-16.3V414l0.8,5.2l-29.4,67.5H865l-29.4-65.8l0.8-6.9v89.3h-16.3V384.1h15.7l35,78.7
			L905.9,384.1z"/>
		<path class="st2" d="M968.5,499.1c-6.3-3.6-11.2-8.8-14.7-15.4c-3.5-6.6-5.2-14.3-5.2-23.1v-33.8c0-8.7,1.7-16.4,5.2-23.1
			c3.5-6.6,8.4-11.8,14.7-15.4c6.3-3.6,13.7-5.5,22-5.5c8.3,0,15.6,1.8,22,5.5c6.3,3.6,11.2,8.8,14.7,15.4
			c3.5,6.6,5.2,14.3,5.2,23.1v33.8c0,8.7-1.7,16.4-5.2,23.1c-3.5,6.6-8.4,11.8-14.7,15.4c-6.3,3.6-13.7,5.5-22,5.5
			C982.2,504.5,974.8,502.7,968.5,499.1z M1003.5,484.7c3.7-2.2,6.6-5.4,8.7-9.4c2-4.1,3.1-8.8,3.1-14.1v-34.9
			c0-5.4-1-10.1-3.1-14.1c-2-4.1-4.9-7.2-8.7-9.4c-3.7-2.2-8.1-3.3-13-3.3c-4.9,0-9.3,1.1-13,3.3c-3.7,2.2-6.6,5.4-8.7,9.4
			c-2,4.1-3.1,8.8-3.1,14.1v34.9c0,5.4,1,10.1,3.1,14.1c2,4.1,4.9,7.2,8.7,9.4c3.7,2.2,8.1,3.3,13,3.3
			C995.4,488.1,999.7,486.9,1003.5,484.7z"/>
		<path class="st2" d="M1076.7,499c-6.3-3.7-11.1-8.9-14.6-15.6c-3.4-6.7-5.2-14.5-5.2-23.4v-32.7c0-8.9,1.7-16.6,5.2-23.4
			c3.4-6.7,8.3-11.9,14.6-15.6c6.3-3.7,13.5-5.5,21.8-5.5c6.8,0,13.1,1.5,18.9,4.4c5.7,2.9,10.5,7.1,14.4,12.4
			c3.9,5.4,6.5,11.6,7.8,18.6h-17.1c-1-3.7-2.8-7-5.2-10c-2.4-2.9-5.3-5.2-8.6-6.8c-3.3-1.6-6.7-2.4-10.2-2.4
			c-4.9,0-9.1,1.2-12.8,3.5c-3.7,2.4-6.5,5.6-8.5,9.9c-2,4.2-3,9.2-3,14.8v32.7c0,5.6,1,10.5,3,14.8c2,4.3,4.9,7.6,8.5,9.9
			c3.7,2.3,7.9,3.5,12.8,3.5c3.6,0,7-0.7,10.2-2.2c3.3-1.5,6.1-3.7,8.5-6.6c2.4-2.9,4.2-6.3,5.2-10.3h17.1c-1.4,7.1-4,13.3-7.9,18.6
			c-3.9,5.4-8.7,9.5-14.4,12.4c-5.7,2.9-12,4.4-18.8,4.4C1090.2,504.5,1082.9,502.7,1076.7,499z"/>
		<path class="st2" d="M1163.3,384.1h16.7v119.2h-16.7V384.1z M1171.4,436.2h37.3v15.9h-37.3V436.2z M1194,450.8l14.7-8.6l46,61.1
			h-23.2L1194,450.8z M1194.1,437.9l34.6-53.8h21l-47.1,68.5L1194.1,437.9z"/>
		<path class="st2" d="M1271,384.1h16.6v119.2H1271V384.1z M1280.9,487.8h32.3c8.5,0,14.6-1.6,18.5-4.8c3.9-3.2,5.8-7.8,5.8-13.6
			v-0.2c0-4-0.7-7.5-2.1-10.4c-1.4-2.9-3.6-5.1-6.6-6.7c-3-1.6-6.9-2.3-11.6-2.3h-36.4v-15.1h36.4c6.2,0,10.8-1.4,14-4.3
			c3.1-2.9,4.7-7.2,4.7-12.9c0-6-1.8-10.4-5.2-13.4c-3.5-3-8.7-4.4-15.7-4.4h-34.1v-15.5h37.1c7.7,0,14.2,1.3,19.4,3.9
			c5.2,2.6,9.1,6.3,11.6,11.2c2.6,4.8,3.9,10.5,3.9,17.2c0,4.1-0.8,7.9-2.4,11.5c-1.6,3.6-4,6.6-7.3,9.2c-3.3,2.5-7.3,4.3-12.1,5.1
			c4.8,0.7,9,2.4,12.5,5.1c3.5,2.7,6.2,6.1,8,10.1c1.9,4,2.8,8.4,2.8,13.1v0.2c0,6.5-1.4,12.1-4.3,17.1c-2.8,4.9-6.9,8.7-12.2,11.4
			c-5.3,2.7-11.5,4-18.5,4h-38.5V487.8z"/>
		<path class="st2" d="M1369.6,384.1h19l35,85.4l-10.8,13.4L1369.6,384.1z M1429.9,478.6c-2.1,5.8-4.6,10.6-7.3,14.4
			c-2.7,3.8-5.9,6.7-9.6,8.6s-8,2.9-13,2.9h-13.9v-16.5h13.9c2.5,0,4.7-0.6,6.7-1.8c1.9-1.2,3.7-3,5.2-5.3c1.5-2.3,2.9-5.3,4.1-8.8
			l30.5-88.1h18.2L1429.9,478.6z"/>
	</g>
</g>
</svg>
