<svg xmlns="http://www.w3.org/2000/svg" width="24" height="39"><defs><clipPath id="a"><path transform="translate(2.063)" fill="none" d="M0 0h24v39H0z"/></clipPath><clipPath id="b"><path data-name="Прямоугольник 1" transform="translate(2.063 -7.15)" fill="none" d="M0 0h23.985v53.3H0z"/></clipPath></defs><g data-name="map" transform="translate(-2.062)" clip-path="url(#a)"><g data-name="Сгруппировать 3"><g data-name="Сгруппировать 2"><g data-name="Сгруппировать 1" clip-path="url(#b)"><path data-name="Контур 3" d="M14.063-7.15c-6.627 0-12 7.449-12 16.64a22.019 22.019 0 001.176 7.189C3.28 16.8 14.063 46.1 14.063 46.1l10.694-29.057a21.912 21.912 0 001.306-7.553c0-9.191-5.372-16.64-12-16.64zm0 26.624c-3.976 0-7.2-4.472-7.2-9.984s3.224-9.984 7.2-9.984 7.2 4.472 7.2 9.984-3.225 9.984-7.2 9.984zm0 0"/></g></g></g></g><path data-name="Color Overlay" d="M9.388 39c-3.194-8.679-8.184-22.237-8.213-22.321A22.025 22.025 0 010 9.49 21.263 21.263 0 012.142 0h7.616C6.88 1.307 4.801 5.063 4.801 9.49c0 5.512 3.224 9.985 7.2 9.985s7.2-4.472 7.2-9.985c0-4.426-2.08-8.183-4.957-9.49h7.616a21.069 21.069 0 012.128 8.669v1.641a21.741 21.741 0 01-1.291 6.734L14.613 39z" fill="#0f1720"/></svg>